PathFileType	4	(X/Y/Z)	OpenSim_Sub09_EMGStiffKnee_Accel.trc
DataRate	CameraRate	NumFrames	NumMarkers	Units	OrigDataRate	OrigDataStartFrame	OrigNumFrames
100	100	27	8	m	100	1897	7584
Frame#	Time	torso_imu_offset_imu	pelvis_imu_offset_imu	tibia_r_imu_offset_imu	femur_r_imu_offset_imu	tibia_l_imu_offset_imu	femur_l_imu_offset_imu	toes_r_imu_offset_imu	toes_l_imu_offset_imu
				X1	Y1	Z1	X2	Y2	Z2	X3	Y3	Z3	X4	Y4	Z4	X5	Y5	Z5	X6	Y6	Z6	X7	Y7	Z7	X8		Y8	Z8	

1897	18.96000000	9.02040508	1.68937609	7.30897661	9.42966927	-2.99961299	0.88954757	5.75588427	-1.05857649	1.20952173	6.68457152	-4.75232202	5.02939875	10.81418804	-2.19191980	1.13643289	10.53820527	0.76445295	-2.12872824	10.43772433	-0.36854541	0.35622492	4.84093397	1.51654525	11.93522831
1898	18.97000000	9.03259701	1.66776090	7.19815594	9.37892205	-2.84057800	0.76235479	5.41477315	-0.28450575	0.95970185	6.70740484	-4.39920489	5.31366223	10.68959478	-2.43351949	1.09221808	10.51934247	0.60593873	-2.19316608	10.49086101	-0.66057481	0.05094767	5.17067369	1.63762093	11.76079563
1899	18.98000000	8.96853822	1.63853242	7.07484319	9.18246220	-2.95248383	0.49714736	5.00243166	0.48032680	0.16394813	6.47334036	-4.10187555	4.95769068	10.68707117	-2.40373273	1.25813491	10.41308350	0.42513157	-2.07996848	8.39943600	-1.53364700	2.04081524	5.56841253	1.47571597	11.58409038
1900	18.99000000	8.89098045	1.56685105	6.83925745	9.42079146	-3.08195336	1.05245760	4.71595187	1.26686749	0.40977321	6.02759509	-3.98689370	5.32495761	10.70106580	-2.07685867	1.14897414	10.39026019	0.10526550	-2.10905929	1.48025259	-4.69171807	-6.30280427	5.34293091	1.68500275	11.67414926
1901	19	9.44257801	1.49254134	7.09453773	11.02742543	-2.86043344	4.55269777	6.19080392	-0.34263422	-0.57364191	6.73392785	-3.51541666	6.71872987	11.13140595	-1.67149904	1.46534823	10.23424584	-0.10784133	-2.50594725	-36.72974886	-1.01334657	6.36070211	5.03161089	1.89964187	12.06543694
1902	19.01000000	11.47970302	1.24861632	7.72063792	12.18486551	-0.80800344	6.69323818	14.35491135	-2.56610339	11.14649990	10.29190385	-2.75617114	6.44364344	11.92289672	-0.62181869	1.13366705	10.49899889	0.07026235	-2.41678968	7.08165970	-7.15771777	24.81573168	5.54371179	1.93583136	12.11901531
1903	19.02000000	13.09993644	0.75903100	8.17926314	13.35568204	0.91560891	8.12164179	32.60838033	-13.67213500	17.78049857	15.71576065	-2.27462105	6.73696230	12.61419305	0.58137912	1.86925541	10.76695497	0.53210583	-2.04227037	37.96360763	-1.87371210	18.28481421	5.85474573	2.47365276	11.98716492
1904	19.03000000	13.12593881	0.41858755	8.85850609	15.40814370	3.62442021	9.67636657	40.50262814	-23.58441893	2.79466985	24.37335100	-3.43950769	5.55388115	12.46726080	1.03128640	2.49900412	10.95942585	0.37414719	-1.55730585	19.06227537	-0.42226828	9.40053464	5.62630751	2.97288961	11.85125871
1905	19.04000000	12.73093604	0.38719502	8.62919069	16.07734083	6.47446244	8.89036140	24.18354451	-11.81312851	-2.50797209	30.76594032	-3.98904379	1.49584606	11.14581702	0.95016705	2.04788235	11.18142720	-0.59975472	-0.91547344	22.09128284	-1.09282381	13.91962831	6.08827983	3.72565959	11.95598597
1906	19.05000000	12.87856769	0.41979892	8.55964952	13.63630009	6.54516771	7.67457113	8.91697480	-1.47752617	2.68567858	25.97070638	-5.97478456	0.15539567	10.24211302	1.26158239	2.22027104	10.94773150	-1.79006892	-0.29000875	17.17629157	-1.31389461	10.77914336	6.71336691	3.45862485	11.62333606
1907	19.06000000	13.45999274	0.05735844	8.14985250	11.18464884	3.32038854	6.02854744	5.56506595	2.88327239	0.17856711	17.74311442	-6.92263034	-2.04504304	9.99995731	0.80352363	1.84192789	11.13878579	-3.04404375	0.27298257	11.83436063	-1.46813537	9.58574833	7.97667343	4.18922670	11.93980212
1908	19.07000000	13.65965879	-0.47629686	7.34315568	10.68254619	0.12396411	5.12144152	5.03483984	7.96025280	-4.33228721	10.66837067	-5.27697911	-3.81594774	9.64813568	-0.32007063	0.89987634	11.86583830	-4.21528166	0.20811038	8.95366266	-2.98032548	9.37386506	8.73733812	4.85443629	12.34521401
1909	19.08000000	13.15349861	-1.01663836	6.63524553	11.33389879	-1.85342851	5.23054716	5.05095569	13.68045334	-5.23554345	6.92436344	-1.29465634	1.10690465	9.60133493	-1.31701807	-0.02770924	12.19345440	-4.53592835	0.60556987	6.58615588	-3.70198092	8.64523608	8.47188805	5.16529402	12.47301099
1910	19.09000000	12.93702806	-1.67854561	6.10838481	11.52381102	-3.05400973	5.52445296	5.18197688	16.79498385	-5.26878336	4.44817288	0.80408304	4.47102108	10.18353595	-2.66219638	-0.30391151	12.21755737	-4.61594116	0.70192403	14.62318990	-11.70059311	7.28135130	9.45816887	4.60913909	12.54288333
1911	19.10000000	12.90466682	-2.16375910	5.68017635	11.83980324	-4.14949608	6.23187173	4.63782773	15.60808760	-5.52047141	3.32115656	1.23133762	3.09849285	10.57717053	-4.55356633	0.00323925	12.50306691	-4.27914227	0.64618185	10.99119236	-5.41330302	7.85955603	10.42216008	4.77132740	12.21032667
1912	19.11000000	12.94229918	-2.41534918	5.37388775	11.81473197	-4.78769218	6.16131988	6.38436874	11.74411369	-5.74443903	4.00383904	1.77232614	-0.17990089	10.27380985	-6.20259314	-0.08057743	12.38461038	-3.67117349	0.51252123	7.91120407	-3.33845461	8.95518086	10.82183007	4.04107134	11.75147624
1913	19.12000000	12.72353808	-2.44644014	5.19853018	11.85924982	-4.61738786	6.06531688	8.72172504	9.32968980	-4.95092242	5.80514173	2.02961162	-2.18908659	9.02497446	-7.55238636	0.42881064	12.01006485	-3.25451285	0.40145068	9.12754256	-1.84470584	8.31364912	10.23221145	4.38541684	11.20736206
1914	19.13000000	12.26206623	-2.36812306	5.15365304	11.90258201	-3.56147863	6.24538099	10.41808843	8.23676582	-2.72591494	7.95749113	2.82084119	-1.27739234	7.87232288	-9.34981423	0.25338218	11.48908929	-3.30030897	0.50190571	8.18055182	-2.28216432	8.61863111	9.44914382	3.50312816	10.92264325
1915	19.14000000	11.68830589	-2.21754764	5.14922221	11.61205131	-2.04263951	6.29821576	11.75632533	7.43625993	-2.03571621	10.28893779	3.28190898	0.47455446	7.01923604	-11.11847996	-0.29901459	11.13074008	-3.56678366	0.75349436	6.55507944	-2.79954037	8.63254411	8.42174152	4.36577214	10.49243236
1916	19.15000000	11.05238188	-2.01219448	5.13045578	10.92597168	-0.55345591	6.33007105	11.79269349	6.63901508	-1.60766560	12.22846930	1.56613328	-0.17290962	5.58311267	-11.83750923	-0.18150395	11.06918614	-4.13655666	1.12376306	6.11190348	-3.41014396	8.37063869	8.62650230	2.59340555	8.18233205
1917	19.16000000	10.37834126	-1.96561745	5.13453832	10.13994585	0.72149263	6.08684262	11.05843243	4.77099189	-0.62682251	13.27263076	-1.47492272	-1.31565502	4.29919432	-11.68575735	-0.44100247	11.18715204	-4.41978303	1.89615171	5.69107039	-3.54821293	8.62755508	4.35341939	0.52727282	10.69717861
1918	19.17000000	9.89449451	-1.79161438	4.98915124	9.27957610	1.51070235	5.57557716	10.30369863	3.09430400	0.28080194	13.23417121	-3.61830966	-1.21224434	3.79481602	-12.57814684	-1.09618415	11.65881837	-4.63452461	2.87654157	5.41666430	-2.96598308	8.53269691	-0.47203178	8.43781207	20.47689013
1919	19.18000000	9.71289511	-1.62840649	4.94386487	8.67212829	1.78718044	5.09707555	9.79321155	2.12708231	0.12130317	13.28726193	-4.07826560	-0.80239288	3.44419047	-13.92005147	-1.01622362	12.42814170	-4.49371536	2.95564151	4.95624337	-3.19671447	8.32444240	-2.79324185	18.34158692	18.18398768
1920	19.19000000	9.61357522	-1.46985042	4.98442114	8.23451311	1.76673225	4.88674782	9.55784984	1.81134338	0.06888674	11.72149649	-3.74716728	-0.20132418	2.64925241	-12.37782184	-0.01878924	12.31647890	-3.87685205	1.93506855	5.08838846	-3.41782555	8.14749768	-10.05276311	15.88407969	14.07073984
1921	19.20000000	9.40727150	-1.25905997	5.12956470	8.00080701	1.47007634	4.81719794	9.79774206	1.55371377	-0.01093561	9.60748253	-3.01638223	0.45672275	1.43698359	-7.55754604	0.85103241	11.25355749	-3.25728195	0.86520458	5.18562822	-3.27588303	8.11506768	-5.82397952	10.46739400	15.62830928
1922	19.21000000	8.95499475	-1.09087057	5.12616510	7.89315847	1.03312680	4.92511532	10.28869453	1.17086997	-0.63828501	8.32177133	-2.35283254	0.47437175	0.40945988	-3.22992426	1.65546733	9.67106999	-2.73040137	0.63714070	5.01600935	-3.31520991	7.66925358	-0.39330881	5.74163159	16.65616392
1923	19.22000000	8.50316539	-1.05210531	5.02015701	7.79939402	0.50792405	5.12291302	10.29634599	0.79316079	-1.03031998	7.72809449	-1.89728705	0.23615539	0.47517126	-0.86796904	3.22651361	8.24920766	-2.23559225	0.88859728	5.22271580	-3.80133251	7.52734105	1.12793934	2.05595471	15.56640864
